<svg width="58" height="58" viewBox="0 0 58 58" fill="none" xmlns="http://www.w3.org/2000/svg">
<path d="M28.9998 2.32007C14.2778 2.32007 2.31982 14.278 2.31982 29.0001C2.31982 43.7221 14.2778 55.6801 28.9998 55.6801C43.7219 55.6801 55.6798 43.7221 55.6798 29.0001C55.6798 14.278 43.7219 2.32007 28.9998 2.32007ZM28.9998 4.64007C42.4667 4.64007 53.3598 15.5332 53.3598 29.0001C53.3598 42.4669 42.4667 53.3601 28.9998 53.3601C15.533 53.3601 4.63982 42.4669 4.63982 29.0001C4.63982 15.5332 15.533 4.64007 28.9998 4.64007ZM27.4003 12.1801C18.297 14.346 7.72107 25.4113 8.74967 33.7851C13.7023 25.0488 17.0555 23.8616 17.9662 23.8616C18.8815 23.8616 19.3754 24.3555 19.3754 25.4113V38.4296C19.3754 40.0473 17.8122 39.8524 16.7745 39.6938C20.617 45.4259 29.5798 45.8201 29.5798 45.8201L33.5945 41.4565L37.4642 44.7643C43.3593 40.949 47.2517 34.4829 47.2517 33.5041C44.3336 36.7213 41.8278 37.3058 41.2659 37.3058C40.704 37.3058 39.7887 37.2379 39.7887 36.463V21.0205C39.7887 19.6793 43.4772 15.2794 44.6417 13.7977C36.9703 15.8096 34.0159 19.643 34.0159 19.643C34.0159 19.643 32.9828 18.8682 30.7081 18.8682C31.56 19.5932 32.7517 20.9072 32.7517 22.4569V36.599C32.7517 36.599 30.2142 38.4296 28.737 38.4296C27.2598 38.4296 26.204 37.7998 26.204 36.6715V19.779C26.204 19.779 24.0925 21.2607 24.0925 16.8926C24.0925 14.713 27.4003 12.1801 27.4003 12.1801Z" fill="#333333"/>
</svg>
