<svg width="61" height="61" viewBox="0 0 61 61" fill="none" xmlns="http://www.w3.org/2000/svg">
<path d="M55.559 9.7681L45.9007 6.46393C45.2602 6.24433 44.5445 6.36023 44.0056 6.773L22.2327 23.4667L11.2181 16.8156C10.6529 16.472 9.95746 16.4252 9.35153 16.6916L5.28486 18.4708C4.54473 18.7941 4.06689 19.5261 4.06689 20.3333V40.6666C4.06689 41.4739 4.54473 42.2059 5.28486 42.5292L9.35153 44.3083C9.95543 44.5747 10.6508 44.5259 11.2181 44.1843L22.2307 37.5333L44.0036 54.2269C44.3635 54.5035 44.8007 54.6458 45.2399 54.6458C45.4615 54.6458 45.6831 54.6092 45.8987 54.536L55.557 51.2318C56.3805 50.9512 56.9336 50.1786 56.9336 49.3083V11.6916C56.9336 10.8214 56.3805 10.0487 55.559 9.7681ZM12.2002 34.0908V26.9091L18.1437 30.5L12.2002 34.0908ZM44.7336 40.0912L30.5775 30.5L44.7336 20.9087V40.0912Z" fill="#333333"/>
</svg>
