<svg width="61" height="60" viewBox="0 0 61 60" fill="none" xmlns="http://www.w3.org/2000/svg">
<path d="M53.7798 30.2485L57.2206 24.5156C57.3588 24.2297 57.3779 23.9016 57.273 23.6063L50.4582 4.40627C50.2485 3.82033 49.6242 3.48752 49.019 3.63283L28.9891 8.43284C28.6078 8.52659 28.2933 8.79377 28.1455 9.15471L26.0153 14.4H19.5198C19.1814 14.4 18.8526 14.5406 18.6238 14.7844L3.98383 30.3844C3.53109 30.8672 3.55492 31.6172 4.03625 32.0672L19.3911 46.4672C19.6151 46.6828 19.9201 46.8 20.2298 46.8H27.2305L29.3655 52.0453C29.5228 52.4344 29.8755 52.711 30.2901 52.7813L51.5924 56.3813C51.6591 56.3953 51.7306 56.4 51.7973 56.4C52.3644 56.4 52.8648 56.0156 52.9887 55.4578L57.3112 35.9813C57.3779 35.6813 57.3255 35.3672 57.1587 35.1L53.7798 30.2485ZM26.0153 14.4L43.2097 11.3016L34.1598 28.8H13.6247L26.0153 14.4ZM27.2353 46.8L13.6247 33.6H34.1598L44.8348 49.4016L27.2353 46.8ZM49.2716 46.6781L39.0398 31.2L47.9848 13.7016L53.7798 30.2531L49.2716 46.6781Z" fill="#333333"/>
</svg>
