<svg width="19" height="20" viewBox="0 0 19 20" fill="none" xmlns="http://www.w3.org/2000/svg">
<g clip-path="url(#clip0_40_622)">
<path fill-rule="evenodd" clip-rule="evenodd" d="M9.50786 0C4.25026 0 0 4.50694 0 10.0826C0 14.5396 2.72329 18.3123 6.50121 19.6476C6.97355 19.748 7.14656 19.4306 7.14656 19.1637C7.14656 18.93 7.13099 18.1288 7.13099 17.2939C4.48614 17.895 3.93537 16.092 3.93537 16.092C3.51032 14.9235 2.88054 14.6232 2.88054 14.6232C2.01488 14.0055 2.94359 14.0055 2.94359 14.0055C3.90384 14.0723 4.40771 15.0405 4.40771 15.0405C5.2576 16.5761 6.62713 16.1422 7.17809 15.8751C7.25672 15.224 7.50875 14.7733 7.77635 14.523C5.66688 14.2893 3.44746 13.4213 3.44746 9.54836C3.44746 8.44662 3.82502 7.54523 4.42327 6.8442C4.32889 6.59386 3.99823 5.5587 4.51786 4.17322C4.51786 4.17322 5.32066 3.90608 7.1308 5.20818C7.90578 4.98747 8.70501 4.8752 9.50786 4.87426C10.3107 4.87426 11.129 4.99123 11.8847 5.20818C13.6951 3.90608 14.4979 4.17322 14.4979 4.17322C15.0175 5.5587 14.6866 6.59386 14.5923 6.8442C15.2063 7.54523 15.5683 8.44662 15.5683 9.54836C15.5683 13.4213 13.3488 14.2725 11.2236 14.523C11.57 14.8401 11.869 15.441 11.869 16.3926C11.869 17.7446 11.8534 18.8298 11.8534 19.1635C11.8534 19.4306 12.0266 19.748 12.4987 19.6478C16.2767 18.3121 19 14.5396 19 10.0826C19.0155 4.50694 14.7497 0 9.50786 0Z" fill="#333333"/>
</g>
<defs>
<clipPath id="clip0_40_622">
<rect width="19" height="20" fill="white"/>
</clipPath>
</defs>
</svg>
