<svg width="19" height="20" viewBox="0 0 19 20" fill="none" xmlns="http://www.w3.org/2000/svg">
<g clip-path="url(#clip0_40_620)">
<path d="M9.5 1.80078C12.0383 1.80078 12.3389 1.8125 13.3371 1.85937C14.2648 1.90234 14.7658 2.06641 15.0998 2.20313C15.5414 2.38281 15.8605 2.60156 16.1908 2.94922C16.5248 3.30078 16.7289 3.63281 16.8996 4.09766C17.0295 4.44922 17.1854 4.98047 17.2262 5.95312C17.2707 7.00781 17.2818 7.32422 17.2818 9.99219C17.2818 12.6641 17.2707 12.9805 17.2262 14.0313C17.1854 15.0078 17.0295 15.5352 16.8996 15.8867C16.7289 16.3516 16.5211 16.6875 16.1908 17.0352C15.8568 17.3867 15.5414 17.6016 15.0998 17.7813C14.7658 17.918 14.2611 18.082 13.3371 18.125C12.3352 18.1719 12.0346 18.1836 9.5 18.1836C6.96172 18.1836 6.66113 18.1719 5.66289 18.125C4.73516 18.082 4.23418 17.918 3.9002 17.7813C3.45859 17.6016 3.13945 17.3828 2.80918 17.0352C2.4752 16.6836 2.27109 16.3516 2.10039 15.8867C1.97051 15.5352 1.81465 15.0039 1.77383 14.0313C1.7293 12.9766 1.71816 12.6602 1.71816 9.99219C1.71816 7.32031 1.7293 7.00391 1.77383 5.95312C1.81465 4.97656 1.97051 4.44922 2.10039 4.09766C2.27109 3.63281 2.47891 3.29688 2.80918 2.94922C3.14316 2.59766 3.45859 2.38281 3.9002 2.20313C4.23418 2.06641 4.73887 1.90234 5.66289 1.85937C6.66113 1.8125 6.96172 1.80078 9.5 1.80078ZM9.5 0C6.9209 0 6.59805 0.0117187 5.58496 0.0585938C4.57559 0.105469 3.88164 0.277344 3.28047 0.523438C2.65332 0.78125 2.12266 1.12109 1.5957 1.67969C1.06504 2.23438 0.742188 2.79297 0.497266 3.44922C0.263477 4.08594 0.100195 4.8125 0.0556641 5.875C0.0111328 6.94531 0 7.28516 0 10C0 12.7148 0.0111328 13.0547 0.0556641 14.1211C0.100195 15.1836 0.263477 15.9141 0.497266 16.5469C0.742188 17.207 1.06504 17.7656 1.5957 18.3203C2.12266 18.875 2.65332 19.2188 3.27676 19.4727C3.88164 19.7188 4.57188 19.8906 5.58125 19.9375C6.59434 19.9844 6.91719 19.9961 9.49629 19.9961C12.0754 19.9961 12.3982 19.9844 13.4113 19.9375C14.4207 19.8906 15.1147 19.7188 15.7158 19.4727C16.3393 19.2188 16.8699 18.875 17.3969 18.3203C17.9238 17.7656 18.2504 17.207 18.4916 16.5508C18.7254 15.9141 18.8887 15.1875 18.9332 14.125C18.9777 13.0586 18.9889 12.7188 18.9889 10.0039C18.9889 7.28906 18.9777 6.94922 18.9332 5.88281C18.8887 4.82031 18.7254 4.08984 18.4916 3.45703C18.2578 2.79297 17.935 2.23438 17.4043 1.67969C16.8773 1.125 16.3467 0.78125 15.7232 0.527344C15.1184 0.28125 14.4281 0.109375 13.4188 0.0625C12.402 0.0117188 12.0791 0 9.5 0Z" fill="#333333"/>
<path d="M9.5 4.86328C6.80586 4.86328 4.62012 7.16406 4.62012 10C4.62012 12.8359 6.80586 15.1367 9.5 15.1367C12.1941 15.1367 14.3799 12.8359 14.3799 10C14.3799 7.16406 12.1941 4.86328 9.5 4.86328ZM9.5 13.332C7.75215 13.332 6.33457 11.8398 6.33457 10C6.33457 8.16016 7.75215 6.66797 9.5 6.66797C11.2479 6.66797 12.6654 8.16016 12.6654 10C12.6654 11.8398 11.2479 13.332 9.5 13.332Z" fill="#333333"/>
<path d="M15.7121 4.66016C15.7121 5.32422 15.2 5.85938 14.5729 5.85938C13.942 5.85938 13.4336 5.32031 13.4336 4.66016C13.4336 3.99609 13.9457 3.46094 14.5729 3.46094C15.2 3.46094 15.7121 4 15.7121 4.66016Z" fill="#333333"/>
</g>
<defs>
<clipPath id="clip0_40_620">
<rect width="19" height="20" fill="white"/>
</clipPath>
</defs>
</svg>
